<svg width="21" height="21" viewBox="0 0 21 21" fill="none" xmlns="http://www.w3.org/2000/svg">
<path id="Path" d="M14.4583 8.55995C16.0733 9.69565 18.0118 10.306 20 10.3046V6.42766C18.5303 6.42766 17.1207 5.85582 16.0815 4.83794C15.0422 3.82005 14.4583 2.43951 14.4583 1H10.5V13.4061C10.5 13.8917 10.3668 14.3685 10.1146 14.7866C9.86231 15.2047 9.50013 15.5488 9.06582 15.7831C8.63143 16.0174 8.14084 16.1332 7.64525 16.1185C7.14959 16.1038 6.66707 15.9591 6.24804 15.6995C5.82893 15.4398 5.4887 15.0749 5.26274 14.6426C5.03678 14.2103 4.93341 13.7265 4.96341 13.2417C4.99341 12.7569 5.15567 12.289 5.43328 11.8866C5.71089 11.4841 6.09366 11.1621 6.54167 10.9539V6.92196C5.28151 7.14326 4.11196 7.712 3.17028 8.5615C2.22861 9.41101 1.5539 10.506 1.22536 11.7179C0.896808 12.9298 0.928064 14.2084 1.31545 15.4035C1.70284 16.5986 2.43027 17.6607 3.41238 18.4651C4.39449 19.2695 5.5905 19.7828 6.86 19.9448C8.12951 20.1068 9.41993 19.9107 10.5796 19.3794C11.7394 18.8483 12.7203 18.0042 13.4073 16.9461C14.0943 15.8881 14.459 14.66 14.4583 13.4061V8.55995V8.55995Z" stroke="white" stroke-width="2" stroke-linecap="round" stroke-linejoin="round"/>
</svg>
